<svg width="20" height="20" viewBox="0 0 0.6 0.6" data-name="Layer 1" xmlns="http://www.w3.org/2000/svg"><path d="M0.3 0.05a0.25 0.25 0 1 0 0.25 0.25 0.25 0.25 0 0 0 -0.25 -0.25m0.08 0.379a0.018 0.018 0 0 1 -0.025 0.009l-0.068 -0.053 -0.044 0.04a0.007 0.007 0 0 1 -0.007 0.001l0.008 -0.075 0 0 0 -0.001s0.122 -0.111 0.127 -0.116c0.005 -0.005 0.003 -0.006 0.003 -0.006 0 -0.006 -0.009 0 -0.009 0l-0.162 0.104 -0.067 -0.023s-0.01 -0.004 -0.011 -0.012c-0.001 -0.008 0.012 -0.013 0.012 -0.013l0.268 -0.106s0.022 -0.01 0.022 0.006Z"/></svg>